<svg width="832" height="155" viewBox="0 0 832 155" fill="none" xmlns="http://www.w3.org/2000/svg">
<path d="M482.53 1.70185C477.43 4.40185 475.03 7.20185 473.53 12.5019C470.93 21.7019 474.73 30.3019 482.93 33.9019C494.23 38.7019 507.23 34.4019 510.93 24.7018C514.13 16.4018 510.43 6.20185 503.03 2.30185C497.73 -0.498151 487.23 -0.798151 482.53 1.70185Z" fill="#4451F6"/>
<path d="M1.22999 8.20183C-0.270015 9.70183 -0.470015 107.702 1.02999 121.702C2.72999 138.002 7.72999 147.102 17.53 151.602C21.73 153.602 24.13 154.002 32.53 154.002C38.03 154.002 44.23 153.502 46.33 152.902C50.73 151.702 50.73 151.602 48.23 136.002L46.53 125.502L43.33 125.202C36.83 124.602 37.03 126.502 37.03 64.4018C37.03 14.1018 36.83 8.20183 35.43 7.60183C32.33 6.40183 2.52999 6.90183 1.22999 8.20183Z" fill="#4451F6"/>
<path d="M632.33 7.70183C631.33 8.10183 631.03 23.5018 631.03 80.1018V152.002H649.03H667.03V139.202L667.13 126.502L671.93 121.202C675.53 117.202 676.93 116.302 677.73 117.202C678.23 117.902 682.83 126.002 687.93 135.202L697.23 152.002H716.73C732.33 152.002 736.13 151.702 735.73 150.702C735.43 150.002 726.83 136.402 716.63 120.602C700.93 96.2018 698.23 91.5018 699.23 90.1018C699.93 89.2018 708.03 79.7018 717.23 68.8018C726.53 58.0018 734.03 48.9018 734.03 48.6018C734.03 48.3018 725.33 48.0018 714.63 48.0018H695.33L681.43 65.6018L667.53 83.2018L667.23 45.9018C667.03 17.6018 666.73 8.40183 665.73 7.80183C664.43 7.00183 634.33 6.80183 632.33 7.70183Z" fill="#4451F6"/>
<path d="M100.33 46.1018C81.1301 48.5018 63.2301 65.1018 58.5301 85.1018C55.6301 97.6018 57.3301 116.602 62.3301 126.502C65.0301 131.902 71.1301 139.502 75.7301 143.202C80.8301 147.302 90.2301 151.702 96.9301 153.102C106.03 155.002 123.13 153.802 131.93 150.702C140.23 147.702 148.03 143.402 148.03 141.902C148.03 141.302 145.53 136.302 142.43 130.802C138.03 122.902 136.53 121.002 135.23 121.602C124.93 125.902 123.03 126.302 115.53 126.402C108.73 126.502 106.73 126.102 102.53 123.902C97.4301 121.302 93.0301 116.202 93.0301 112.902C93.0301 111.102 94.4301 111.002 121.93 111.002H150.73L151.43 106.402C154.03 87.3018 148.83 67.7018 138.33 57.3018C133.23 52.1018 123.13 47.2018 116.23 46.4018C113.63 46.1018 110.43 45.8018 109.03 45.6018C107.63 45.5018 103.73 45.7018 100.33 46.1018ZM116.43 75.8018C118.83 78.0018 121.03 82.4018 121.03 85.0018C121.03 86.9018 120.53 87.0018 106.53 87.0018C97.0301 87.0018 92.0301 86.6018 92.0301 86.0018C92.0301 82.2018 98.0301 75.4018 102.63 74.0018C106.53 72.8018 114.13 73.8018 116.43 75.8018Z" fill="#4451F6"/>
<path d="M317.23 46.1018C313.13 46.6018 308.03 48.3018 302.63 50.9018C280.43 61.6018 269.63 87.4018 275.53 115.302C279.43 133.702 295.03 149.202 313.73 153.002C323.03 155.002 340.03 153.802 348.93 150.702C357.03 147.802 365.03 143.502 365.03 142.002C365.03 141.402 362.53 136.502 359.43 131.002C354.93 123.002 353.43 121.002 352.13 121.602C346.63 124.002 338.83 126.302 334.43 126.702C328.53 127.302 319.63 125.102 315.63 121.902C312.73 119.602 308.73 112.602 309.73 111.602C310.13 111.302 323.23 111.002 339.03 111.002H367.73L368.43 106.402C371.03 87.1018 366.03 68.4018 355.33 57.6018C349.83 52.0018 340.43 47.2018 333.23 46.4018C330.63 46.1018 327.43 45.8018 326.03 45.6018C324.63 45.5018 320.73 45.7018 317.23 46.1018ZM332.23 75.1018C334.73 76.4018 338.03 81.9018 338.03 84.7018C338.03 87.0018 337.93 87.0018 323.53 87.0018C314.03 87.0018 309.03 86.6018 309.03 86.0018C309.03 82.2018 315.03 75.4018 319.63 74.0018C322.93 73.0018 329.33 73.5018 332.23 75.1018Z" fill="#4451F6"/>
<path d="M445.43 46.0018C436.73 47.8018 427.33 54.5018 421.73 62.9018L420.13 65.2018L419.53 61.9018C419.23 60.0018 418.63 56.2018 418.23 53.5018L417.53 48.5018L402.73 48.2018L388.03 47.9018V100.002V152.002H406.03H424.03V123.502C424.03 92.7018 424.23 91.5018 429.53 85.2018C434.63 79.1018 442.33 76.5018 451.23 77.9018C454.13 78.4018 456.63 78.7018 456.83 78.5018C457.03 78.3018 458.53 71.5018 460.13 63.3018C462.83 49.5018 462.93 48.4018 461.33 47.2018C460.43 46.6018 458.63 46.0018 457.43 46.0018C456.23 46.0018 454.03 45.8018 452.43 45.6018C450.83 45.3018 447.63 45.5018 445.43 46.0018Z" fill="#4451F6"/>
<path d="M576.23 46.1018C554.93 48.8018 538.03 62.0018 531.33 81.2018C529.23 87.2018 528.83 90.2018 528.83 100.102C528.83 117.902 532.63 128.502 542.73 139.102C548.63 145.302 556.43 149.902 565.43 152.502C574.63 155.202 593.33 154.202 601.93 150.702C608.43 148.002 615.03 143.602 615.03 142.002C615.03 141.102 602.13 119.002 601.63 119.002C601.43 119.002 598.63 120.402 595.43 122.102C590.33 124.702 588.73 125.102 583.83 124.802C576.73 124.302 572.23 121.002 568.63 113.802C563.33 103.302 565.93 85.2018 573.43 79.2018C579.63 74.4018 589.13 73.8018 594.83 77.9018L597.83 80.0018L605.43 69.6018C609.63 63.9018 613.23 58.5018 613.63 57.7018C615.03 54.0018 599.53 46.7018 588.53 45.8018C585.23 45.5018 579.73 45.7018 576.23 46.1018Z" fill="#4451F6"/>
<path d="M780.13 46.1018C760.13 48.8018 742.33 65.7018 738.13 85.8018C736.73 92.4018 736.73 107.002 738.03 114.102C739.53 122.302 745.43 133.402 751.53 139.402C757.63 145.602 768.23 151.302 776.73 153.002C785.73 154.902 803.03 153.802 811.53 150.702C818.33 148.302 828.03 143.302 828.03 142.302C828.03 140.902 816.73 121.002 815.93 121.002C815.43 121.002 813.33 121.802 811.23 122.902C795.63 130.702 776.43 125.902 772.63 113.302L771.93 111.002L801.23 110.802L830.53 110.502L831.43 102.602C832.63 92.8018 831.03 80.5018 827.43 71.6018C824.53 64.3018 816.83 55.1018 810.73 51.6018C802.73 46.9018 790.13 44.7018 780.13 46.1018ZM795.83 75.6018C797.13 76.5018 798.83 78.7018 799.63 80.5018C802.33 87.1018 802.63 87.0018 786.13 87.0018H771.13L772.23 84.0018C773.63 79.9018 778.43 75.3018 782.33 74.1018C786.33 72.9018 792.73 73.6018 795.83 75.6018Z" fill="#4451F6"/>
<path d="M160.03 49.5018C160.03 50.3018 164.93 65.9018 170.93 84.2018C177.03 102.502 184.43 125.302 187.53 134.702L193.13 152.002H214.03H234.93L238.93 139.202C241.13 132.202 244.53 121.502 246.33 115.502C248.23 109.402 253.63 92.2018 258.43 77.3018C263.13 62.3018 267.03 49.6018 267.03 49.0018C267.03 48.3018 261.33 48.0018 249.83 48.2018L232.73 48.5018L228.73 64.5018C226.63 73.3018 222.43 90.4018 219.53 102.502L214.23 124.502L213.03 120.202C212.43 117.802 211.13 112.102 210.13 107.702C209.13 103.202 205.43 87.9018 201.93 73.7018L195.63 48.0018H177.83C162.83 48.0018 160.03 48.2018 160.03 49.5018Z" fill="#4451F6"/>
<path d="M474.03 100.002V152.002H492.03H510.03V100.002V48.0018H492.03H474.03V100.002Z" fill="#4451F6"/>
</svg>
